<?xml version="1.0" encoding="UTF-8"?>
<svg width="18px" height="18px" viewBox="0 0 18 18" version="1.1" xmlns="http://www.w3.org/2000/svg" xmlns:xlink="http://www.w3.org/1999/xlink">
    <g stroke="none" stroke-width="1" fill="none" fill-rule="evenodd">
        <path d="M18,9 C18,4.02943725 13.9705627,0 9,0 C4.02943725,0 0,4.02943725 0,9 C0,13.4921875 3.29156275,17.1265625 7.59375,17.878125 L7.59375,11.578125 L5.30859375,11.578125 L5.30859375,9 L7.59375,9 L7.59375,7.02265625 C7.59375,5.85390625 8.07734375,5 9.33515625,5 C9.940625,5 10.5859375,5.12734375 10.5859375,5.12734375 L10.5859375,7.28515625 L9.8921875,7.28515625 C9.2109375,7.28515625 8.90625,7.90390625 8.90625,8.540625 L8.90625,9 L10.4804688,9 L10.240625,11.578125 L8.90625,11.578125 L8.90625,17.878125 C13.2084373,17.1265625 16.5,13.4921875 16.5,9 L18,9 Z" fill="#1877F2"></path>
    </g>
</svg> 