<?xml version="1.0" encoding="UTF-8"?>
<svg width="18px" height="18px" viewBox="0 0 18 18" version="1.1" xmlns="http://www.w3.org/2000/svg" xmlns:xlink="http://www.w3.org/1999/xlink">
    <g stroke="none" stroke-width="1" fill="none" fill-rule="evenodd">
        <path d="M9,0 C4.02943725,0 0,4.02943725 0,9 C0,13.4921875 3.29156275,17.1265625 7.59375,17.878125 C8.13359375,17.958125 8.30859375,17.633125 8.30859375,17.355625 C8.30859375,17.105625 8.30078125,16.268125 8.30078125,15.360625 C5.578125,15.840625 4.83359375,14.963125 4.596875,14.418125 C4.515625,14.220625 4.06640625,13.325625 3.640625,13.140625 C3.2734375,12.985625 2.8828125,12.485625 3.640625,12.475625 C4.371875,12.465625 4.925,13.170625 5.06640625,13.418125 C5.578125,14.498125 6.596875,14.745625 8.3203125,14.745625 C9.003125,14.745625 9.66015625,14.655625 10.2851562,14.475625 C10.2851562,13.670625 10.578125,13.065625 10.925,12.755625 C8.14453125,12.745625 5.253125,11.745625 5.253125,8.355625 C5.253125,7.385625 5.58984375,6.585625 6.06640625,5.955625 C5.9765625,5.705625 5.640625,4.805625 6.06640625,3.595625 C6.06640625,3.595625 6.8328125,3.355625 8.30859375,4.475625 C9.19140625,4.745625 10.1289062,4.745625 11.0117188,4.475625 C12.4875,3.345625 13.2539062,3.595625 13.2539062,3.595625 C13.6796875,4.815625 13.34375,5.715625 13.2539062,5.965625 C13.7304688,6.595625 14.0664062,7.395625 14.0664062,8.365625 C14.0664062,11.765625 11.175,12.755625 8.39453125,12.755625 C8.75390625,13.005625 9.06640625,13.505625 9.06640625,14.255625 C9.06640625,15.355625 8.95703125,16.265625 8.95703125,17.355625 C8.95703125,17.633125 9.13203125,17.968125 9.671875,17.878125 C13.9740625,17.1265625 17.265625,13.4921875 17.265625,9 C17.265625,4.02943725 13.2361877,0 8.265625,0 L9,0 Z" fill="#24292E"></path>
    </g>
</svg> 